TITLE ""
FILE "DISC1Track01.mp3" MP3
  TRACK 01 AUDIO
    TITLE "DISC1Track01_01"
    INDEX 01 00:00:00
  TRACK 02 AUDIO
    TITLE "DISC1Track01_02"
    INDEX 01 00:01:14
  TRACK 03 AUDIO
    TITLE "DISC1Track01_03"
    INDEX 01 00:01:27
  TRACK 04 AUDIO
    TITLE "DISC1Track01_04"
    INDEX 01 00:04:24
  TRACK 05 AUDIO
    TITLE "DISC1Track01_05"
    INDEX 01 00:07:34
  TRACK 06 AUDIO
    TITLE "DISC1Track01_06"
    INDEX 01 00:10:22
  TRACK 07 AUDIO
    TITLE "DISC1Track01_07"
    INDEX 01 00:10:38
  TRACK 08 AUDIO
    TITLE "DISC1Track01_08"
    INDEX 01 00:13:46
  TRACK 09 AUDIO
    TITLE "DISC1Track01_09"
    INDEX 01 00:16:29
  TRACK 10 AUDIO
    TITLE "DISC1Track01_10"
    INDEX 01 00:18:63
  TRACK 11 AUDIO
    TITLE "DISC1Track01_11"
    INDEX 01 00:19:02
  TRACK 12 AUDIO
    TITLE "DISC1Track01_12"
    INDEX 01 00:21:58
  TRACK 13 AUDIO
    TITLE "DISC1Track01_13"
    INDEX 01 00:24:30
  TRACK 14 AUDIO
    TITLE "DISC1Track01_14"
    INDEX 01 00:26:37
  TRACK 15 AUDIO
    TITLE "DISC1Track01_15"
    INDEX 01 00:26:55
  TRACK 16 AUDIO
    TITLE "DISC1Track01_16"
    INDEX 01 00:28:42
  TRACK 17 AUDIO
    TITLE "DISC1Track01_17"
    INDEX 01 00:30:54
  TRACK 18 AUDIO
    TITLE "DISC1Track01_18"
    INDEX 01 00:32:44
  TRACK 19 AUDIO
    TITLE "DISC1Track01_19"
    INDEX 01 00:32:59
  TRACK 20 AUDIO
    TITLE "DISC1Track01_20"
    INDEX 01 00:35:13
  TRACK 21 AUDIO
    TITLE "DISC1Track01_21"
    INDEX 01 00:38:01
  TRACK 22 AUDIO
    TITLE "DISC1Track01_22"
    INDEX 01 00:40:31
  TRACK 23 AUDIO
    TITLE "DISC1Track01_23"
    INDEX 01 00:40:47
  TRACK 24 AUDIO
    TITLE "DISC1Track01_24"
    INDEX 01 00:44:51
  TRACK 25 AUDIO
    TITLE "DISC1Track01_25"
    INDEX 01 00:48:11
  TRACK 26 AUDIO
    TITLE "DISC1Track01_26"
    INDEX 01 00:51:19
  TRACK 27 AUDIO
    TITLE "DISC1Track01_27"
    INDEX 01 00:51:35
  TRACK 28 AUDIO
    TITLE "DISC1Track01_28"
    INDEX 01 00:55:25
  TRACK 29 AUDIO
    TITLE "DISC1Track01_29"
    INDEX 01 00:59:35
  TRACK 30 AUDIO
    TITLE "DISC1Track01_30"
    INDEX 01 01:03:09
  TRACK 31 AUDIO
    TITLE "DISC1Track01_31"
    INDEX 01 01:03:21
  TRACK 32 AUDIO
    TITLE "DISC1Track01_32"
    INDEX 01 01:07:09
  TRACK 33 AUDIO
    TITLE "DISC1Track01_33"
    INDEX 01 01:10:17
  TRACK 34 AUDIO
    TITLE "DISC1Track01_34"
    INDEX 01 01:12:67
  TRACK 35 AUDIO
    TITLE "DISC1Track01_35"
    INDEX 01 01:13:07
  TRACK 36 AUDIO
    TITLE "DISC1Track01_36"
    INDEX 01 01:16:43
  TRACK 37 AUDIO
    TITLE "DISC1Track01_37"
    INDEX 01 01:20:21
  TRACK 38 AUDIO
    TITLE "DISC1Track01_38"
    INDEX 01 01:23:37
  TRACK 39 AUDIO
    TITLE "DISC1Track01_39"
    INDEX 01 01:23:53
  TRACK 40 AUDIO
    TITLE "DISC1Track01_40"
    INDEX 01 01:26:45
  TRACK 41 AUDIO
    TITLE "DISC1Track01_41"
    INDEX 01 01:29:10
  TRACK 42 AUDIO
    TITLE "DISC1Track01_42"
    INDEX 01 01:31:23
  TRACK 43 AUDIO
    TITLE "DISC1Track01_43"
    INDEX 01 01:31:39
  TRACK 44 AUDIO
    TITLE "DISC1Track01_44"
    INDEX 01 01:35:30
  TRACK 45 AUDIO
    TITLE "DISC1Track01_45"
    INDEX 01 01:39:34
  TRACK 46 AUDIO
    TITLE "DISC1Track01_46"
    INDEX 01 01:43:06
